<svg xmlns="http://www.w3.org/2000/svg" viewBox="0 0 320 200" role="img" aria-label="Austin skyline">
  <defs><linearGradient id="sky" x1="0" y1="0" x2="0" y2="1">
    <stop offset="0" stop-color="#E8FAF6"/><stop offset="1" stop-color="#FFFFFF"/></linearGradient></defs>
  <rect width="320" height="200" fill="url(#sky)"/>
  <g fill="#0FA593" opacity=".38">
    <path d="M132 168 V104 h40 v64 Z"/>
    <path d="M138 104 L152 74 L166 104 Z"/>
    <rect x="148" y="56" width="8" height="20" rx="3"/>
    <rect x="60" y="122" width="24" height="46" rx="2"/>
    <rect x="92" y="136" width="18" height="32" rx="2"/>
    <rect x="196" y="112" width="22" height="56" rx="2"/>
    <rect x="226" y="130" width="18" height="38" rx="2"/>
    <rect x="256" y="142" width="22" height="26" rx="2"/>
    <rect x="28" y="140" width="18" height="28" rx="2"/>
  </g>
  <g fill="#15C2A8" opacity=".22"><path d="M196 112 L207 92 L218 112 Z"/></g>
  <rect x="0" y="168" width="320" height="2" fill="#0B1B2B" opacity=".18"/>
</svg>
